<svg xmlns="http://www.w3.org/2000/svg" version="1.1" xmlns:xlink="http://www.w3.org/1999/xlink" xmlns:svgjs="http://svgjs.dev/svgjs" width="1000" height="1000" viewBox="0 0 1000 1000"><rect width="1000" height="1000" fill="#ffffff"></rect><g transform="matrix(0.7,0,0,0.7,149.85852932541025,273.383644667452)"><svg viewBox="0 0 381 247" data-background-color="#ffffff" preserveAspectRatio="xMidYMid meet" height="648" width="1000" xmlns="http://www.w3.org/2000/svg" xmlns:xlink="http://www.w3.org/1999/xlink"><g id="tight-bounds" transform="matrix(1,0,0,1,0.07700046716956876,-0.10000051336120919)"><svg viewBox="0 0 380.84599906566086 247.2" height="247.2" width="380.84599906566086"><g><svg viewBox="0 0 395.52 256.72461897950313" height="247.2" width="380.84599906566086"><g transform="matrix(1,0,0,1,0,190.26887339646427)"><svg viewBox="0 0 395.52 66.45574558303886" height="66.45574558303886" width="395.52"><g><svg viewBox="0 0 395.52 66.45574558303886" height="66.45574558303886" width="395.52"><g><svg viewBox="0 0 395.52 66.45574558303886" height="66.45574558303886" width="395.52"><g transform="matrix(1,0,0,1,0,0)"><svg width="395.52" viewBox="-1.350000023841858 -37 282.9800109863281 47.54999923706055" height="66.45574558303886" data-palette-color="#6b7280"><path d="M4.2-33.2L3.45-36.45 9.3-36.45 9.3-3.45Q9.3-0.7 8.93 1.73 8.55 4.15 7.5 6.03 6.45 7.9 4.5 9.08 2.55 10.25-0.6 10.55L-0.6 10.55-1.35 7.4Q0.6 7.1 1.73 6.1 2.85 5.1 3.38 3.65 3.9 2.2 4.05 0.53 4.2-1.15 4.2-2.65L4.2-2.65 4.2-33.2ZM26.85-36.45L31.6-36.45 44.25 0 38.65 0 34.55-12.1 22.8-12.1 18.65 0 14.15 0 26.85-36.45ZM33.3-15.8L28.7-29.8 24.05-15.8 33.3-15.8ZM48.45-36.45L55.8-36.45 64.4-13.35Q64.9-12.05 65.3-10.78 65.7-9.5 66.1-7.95L66.1-7.95Q66.5-9.5 66.85-10.73 67.2-11.95 67.7-13.2L67.7-13.2 76.25-36.45 82.84-36.45 82.84 0 77.8 0 77.8-26.05Q77.8-26.95 77.87-27.8 77.95-28.65 78-29.65L78-29.65Q77.7-28.85 77.34-28 77-27.15 76.7-26.25L76.7-26.25 67.1 0.05 64.1 0.05 54.35-26.45Q54.05-27.25 53.72-28.1 53.4-28.95 53.15-29.65L53.15-29.65Q53.25-28.75 53.27-27.93 53.3-27.1 53.3-26.25L53.3-26.25 53.3 0 49.15 0 49.15-33.2 48.45-36.45ZM90.94-33.2L90.24-36.45 112.34-36.45 112.34-32.7 96.04-32.7 96.04-20.6 108.64-20.6 108.64-16.85 96.04-16.85 96.04-3.75 112.34-3.75 112.34 0 90.94 0 90.94-33.2ZM128.29-36.95L128.29-36.95Q130.84-36.95 133.27-36.25 135.69-35.55 137.84-34.2L137.84-34.2 135.34-30.65Q133.79-31.8 131.97-32.48 130.14-33.15 128.24-33.15L128.24-33.15Q125.74-33.15 123.94-31.9 122.14-30.65 122.14-27.9L122.14-27.9Q122.14-26.3 122.97-25.2 123.79-24.1 125.19-23.28 126.59-22.45 128.29-21.65L128.29-21.65Q130.04-20.85 131.87-19.9 133.69-18.95 135.24-17.68 136.79-16.4 137.72-14.58 138.64-12.75 138.64-10.1L138.64-10.1Q138.64-6.45 136.89-4.08 135.14-1.7 132.27-0.55 129.39 0.6 126.09 0.6L126.09 0.6Q123.29 0.6 120.67-0.13 118.04-0.85 115.59-2.15L115.59-2.15 117.49-6.55Q119.19-5.1 121.52-4.17 123.84-3.25 126.04-3.25L126.04-3.25Q127.69-3.25 129.34-3.88 130.99-4.5 132.09-5.85 133.19-7.2 133.19-9.3L133.19-9.3Q133.19-11.4 132.14-12.78 131.09-14.15 129.42-15.13 127.74-16.1 125.84-16.95L125.84-16.95Q124.19-17.75 122.57-18.6 120.94-19.45 119.59-20.6 118.24-21.75 117.44-23.38 116.64-25 116.64-27.25L116.64-27.25Q116.64-30.5 118.34-32.65 120.04-34.8 122.72-35.88 125.39-36.95 128.29-36.95ZM170.39 0.6L170.39 0.6Q166.09 0.6 162.94-0.88 159.79-2.35 157.71-4.95 155.64-7.55 154.64-10.85 153.64-14.15 153.64-17.7L153.64-17.7Q153.64-21.5 154.74-24.98 155.84-28.45 158.01-31.15 160.19-33.85 163.39-35.43 166.59-37 170.79-37L170.79-37Q172.54-37 174.64-36.58 176.74-36.15 178.69-35.33 180.64-34.5 181.89-33.1L181.89-33.1 179.04-29.85Q177.64-31.45 175.24-32.33 172.84-33.2 170.74-33.2L170.74-33.2Q167.84-33.2 165.69-31.9 163.54-30.6 162.09-28.4 160.64-26.2 159.91-23.5 159.19-20.8 159.19-17.95L159.19-17.95Q159.19-13.45 160.61-10.18 162.04-6.9 164.64-5.15 167.24-3.4 170.79-3.4L170.79-3.4Q172.89-3.4 175.31-4 177.74-4.6 180.34-5.9L180.34-5.9 181.99-2.85Q180.44-1.75 178.44-1 176.44-0.25 174.36 0.18 172.29 0.6 170.39 0.6ZM209.23 0L209.23-17 192.03-17 192.03 0 186.93 0 186.93-33.2Q186.93-33.25 186.76-33.98 186.58-34.7 186.43-35.5 186.28-36.3 186.23-36.45L186.23-36.45 192.03-36.45 192.03-20.75 209.23-20.75 209.23-36.45 214.38-36.45 214.38 0 209.23 0ZM231.93-36.45L236.68-36.45 249.33 0 243.73 0 239.63-12.1 227.88-12.1 223.73 0 219.23 0 231.93-36.45ZM238.38-15.8L233.78-29.8 229.13-15.8 238.38-15.8ZM253.48-36.45L260.08-36.45 275.68-12.5Q276.13-11.8 276.63-11.03 277.13-10.25 277.63-9.5L277.63-9.5Q277.58-10.35 277.5-11.25 277.43-12.15 277.43-13L277.43-13 277.43-36.45 281.63-36.45 281.63 0.25 278.18 0.25 260.03-27.45Q259.63-28.15 259.13-28.9 258.63-29.65 258.13-30.35L258.13-30.35Q258.23-29.55 258.28-28.7 258.33-27.85 258.33-27.05L258.33-27.05 258.33 0 254.18 0 254.18-33.2 253.48-36.45Z" opacity="1" transform="matrix(1,0,0,1,0,0)" fill="#000000" class="undefined-text-0" data-fill-palette-color="primary" id="text-0"></path></svg></g></svg></g></svg></g></svg></g><g transform="matrix(1,0,0,1,118.31416989602934,0)"><svg viewBox="0 0 158.8916602079413 158.8916602079413" height="158.8916602079413" width="158.8916602079413"><g><svg></svg></g><g id="icon-0"><svg viewBox="0 0 158.8916602079413 158.8916602079413" height="158.8916602079413" width="158.8916602079413"><g><path d="M0 79.446c0-43.877 35.569-79.446 79.446-79.446 43.877 0 79.446 35.569 79.446 79.446 0 43.877-35.569 79.446-79.446 79.446-43.877 0-79.446-35.569-79.446-79.446zM79.446 152.899c40.567 0 73.453-32.886 73.453-73.453 0-40.567-32.886-73.453-73.453-73.453-40.567 0-73.453 32.886-73.453 73.453 0 40.567 32.886 73.453 73.453 73.453z" data-fill-palette-color="accent" fill="#000000" stroke="transparent"></path><ellipse rx="78.65137180293094" ry="78.65137180293094" cx="79.44583010397065" cy="79.44583010397065" fill="#000000" stroke="transparent" stroke-width="0" fill-opacity="1" data-fill-palette-color="accent"></ellipse></g><g transform="matrix(1,0,0,1,56.1320571514121,36.14882319207621)"><svg viewBox="0 0 46.627545905117096 86.59401382378888" height="86.59401382378888" width="46.627545905117096"><g><svg xmlns="http://www.w3.org/2000/svg" xmlns:xlink="http://www.w3.org/1999/xlink" version="1.1" x="0" y="0" viewBox="27 9.000000953674316 42 78" enable-background="new 0 0 96 96" xml:space="preserve" height="86.59401382378888" width="46.627545905117096" class="icon-s-0" data-fill-palette-color="quaternary" id="s-0"><path d="M45.566 29.174c1.16-2.485 1.272-6.534 0.065-10.807-1.208-4.272-3.421-7.665-5.71-9.175-1.16 2.485-1.271 6.534-0.064 10.807C41.064 24.271 43.278 27.664 45.566 29.174zM56.346 19.797c1.051-4.313 0.791-8.356-0.458-10.797-2.232 1.593-4.321 5.063-5.372 9.377-1.051 4.313-0.792 8.356 0.457 10.797C53.205 27.581 55.295 24.11 56.346 19.797zM57 39c0-4.962-4.037-9-9-9s-9 4.038-9 9h0v3h18V39zM48.5 39c-0.829 0-1.5-0.671-1.5-1.5s0.671-1.5 1.5-1.5c0.828 0 1.5 0.671 1.5 1.5S49.328 39 48.5 39zM53.5 39c-0.828 0-1.5-0.671-1.5-1.5s0.672-1.5 1.5-1.5 1.5 0.671 1.5 1.5S54.328 39 53.5 39zM69 45H27v6h9l-3 36h30l-3-36h9V45z" fill="#ffffff" data-fill-palette-color="quaternary"></path></svg></g></svg></g></svg></g></svg></g><g></g></svg></g><defs></defs></svg><rect width="380.84599906566086" height="247.2" fill="none" stroke="none" visibility="hidden"></rect></g></svg></g></svg>